<?xml version="1.0" encoding="utf-8"?>
<!-- Generator: Adobe Illustrator 26.0.1, SVG Export Plug-In . SVG Version: 6.00 Build 0)  -->
<svg version="1.1" id="Layer_2" xmlns="http://www.w3.org/2000/svg" xmlns:xlink="http://www.w3.org/1999/xlink" x="0px" y="0px"
	 viewBox="0 0 451.51 549.73" style="enable-background:new 0 0 451.51 549.73;" xml:space="preserve">
<style type="text/css">
	.st0{fill:#474748;}
	.st1{fill:#474748;stroke:#474748;stroke-width:1.2006;stroke-miterlimit:10;}
	.st2{fill:url(#SVGID_1_);}
	.st3{fill:#828FC7;}
	.st4{fill:url(#SVGID_00000058576861890016101130000017276840389975145887_);}
</style>
<g>
	<g>
		<g>
			<path class="st0" d="M32.86,377.54v0.92h0.41c2.07,0,3.66,0.53,4.88,1.77c1.82,1.91,2.67,5.16,2.67,10.24l0.02,66.8
				c0.06,4.9,0.09,13.29-6.61,14.43c-0.67,0.13-0.99,0.28-1.9,0.36c-8.27,1.31-13.78-2.97-13.78-2.97
				c-0.71-0.56-1.18-1.14-1.45-1.79c-1.88-4.13,1.13-8.15,2.68-9.87l0.31-0.33c0.15-0.18,0.32-0.39,0.59-0.65
				c1.63-1.79,2.34-4.03,2.27-6.04c-0.09-1.74-0.77-3.44-1.93-4.8c-0.32-0.37-0.67-0.72-1.05-1.03c-1.12-0.89-2.99-1.88-5.52-1.48
				c-4.88,0.75-7.58,5.17-7.7,8.8c-0.05,0.83-0.02,1.55,0.01,2.01c0.25,4.1,3.01,8.93,5.74,12.43c0.75,0.97,1.63,1.84,2.62,2.55
				c6.69,4.78,16.14,4.13,16.14,4.13c4.49-0.09,10.65-2.65,14.61-6.13c2.24-1.96,3.9-4.29,4.91-6.63c1.33-3.08,1.66-6.73,1.8-9.89
				c0.05-1.85,0.05-3.7,0.05-5.49l0.01-54.41c0-5.08,0.85-8.34,2.67-10.24c1.18-1.22,2.85-1.79,4.82-1.79h0.48v-0.92H32.86z"/>
		</g>
		<g>
			<path class="st0" d="M245.77,472.16v0.92h-27.76v-0.92l0.41,0c2.09,0,3.7-0.53,4.9-1.77c1.82-1.87,2.67-5.12,2.67-10.24
				l-0.89-75.27l-34.48,81.35l-1.5-2.92l-33.46-70.3l0.07,68.94c0,0.12,0,0.24,0.01,0.36l0.01,0.5h0.01
				c0.3,5.84,3.27,9.37,7.83,9.37l0.4,0v0.92h-19.05v-0.92l0.4,0c4.68,0,7.69-3.74,7.85-9.86l0-0.05c0-0.1,0.01-0.21,0.01-0.32
				V390.6v-0.02c-0.27-6.27-2.61-9.25-7.15-9.25h-0.43v-0.92h18.41l32.1,69.42l29.22-69.42h20.41v0.92h-0.27
				c-2.13,0-3.82,0.55-5.03,1.77c-1.84,1.9-2.69,5.16-2.67,10.26v66.75c0,5.11,0.86,8.37,2.7,10.24c1.21,1.27,2.8,1.81,4.87,1.81
				L245.77,472.16z"/>
		</g>
		<g>
			<path class="st0" d="M109.29,441.61H73.47l-5.81,15.74c-1.64,5.09-3.22,5.98-3.33,11.73c-0.03,1.62,1.24,3.12,4.32,3.12h0.45
				v0.89H52.67v-0.89h0.3c5.1,0,8.69-3.3,11.66-10.86l28.41-81.53h4.63l33.36,81.65c2.79,6.13,5.79,9.34,9.7,10.4
				c0.23,0.07,0.51,0.13,0.83,0.18c0.35,0.05,1.27,0.12,1.82,0.17v0.89h-28.2v-0.89c0.76,0,1.59,0.03,1.95-0.01
				c0.76-0.14,0.89-0.29,1.73-1.46c1.23-1.76,0.43-5.09-0.94-8.86L109.29,441.61z M108.48,439.64l-18.39-43.48l-15.77,43.48H108.48z
				"/>
		</g>
		<g>
			<path class="st0" d="M305.15,441.61h-35.82l-5.81,15.74c-1.64,5.09-3.22,5.98-3.33,11.73c-0.03,1.62,1.24,3.12,4.32,3.12h0.45
				v0.89h-16.43v-0.89h0.3c5.1,0,8.69-3.3,11.66-10.86l28.41-81.53h4.63l33.36,81.65c2.79,6.13,5.79,9.34,9.7,10.4
				c0.23,0.07,0.51,0.13,0.83,0.18c0.35,0.05,1.27,0.12,1.82,0.17v0.89h-28.2v-0.89c0.76,0,1.59,0.03,1.95-0.01
				c0.76-0.14,0.89-0.29,1.73-1.46c1.23-1.76,0.43-5.09-0.94-8.86L305.15,441.61z M304.34,439.64l-18.39-43.48l-15.77,43.48H304.34z
				"/>
		</g>
		<g>
			<path class="st0" d="M370.82,473.08h-28.81v-0.92h0.14c2.34,0,4.09-0.53,5.35-1.77c1.89-1.88,2.77-5.14,2.77-10.24v-66.8
				c0-5.08-0.88-8.34-2.77-10.24c-1.26-1.24-2.92-1.77-5.07-1.77h-0.43v-0.92h28.81v0.92h-0.5c-2.05,0-3.78,0.57-5,1.79
				c-1.89,1.9-2.77,5.16-2.77,10.24v78.75l20.06,0.01c11.17,0,22.31-3.97,28.38-12.58c0.79-1.12,1.43-2.33,2.4-3.3l0,0l0,0
				l-7.21,16.84L370.82,473.08L370.82,473.08z"/>
		</g>
		<g>
			<path class="st0" d="M443.84,381.33c-1.97,0-3.63,0.57-4.82,1.79c-1.82,1.9-2.67,5.16-2.67,10.24v66.79
				c0,5.1,0.85,8.36,2.67,10.24c1.19,1.24,2.78,1.78,4.87,1.78h0.43v0.92h-27.74v-0.92h0.14c2.25,0,3.94-0.53,5.16-1.77
				c1.82-1.88,2.67-5.14,2.67-10.24v-66.8c0-5.08-0.85-8.34-2.67-10.24c-1.22-1.24-2.81-1.77-4.88-1.77h-0.41v-0.92h27.74v0.92
				H443.84z"/>
		</g>
	</g>
	<g>
		<g>
			<rect x="192.95" y="507.59" class="st1" width="1.8" height="27.7"/>
		</g>
		<g>
			<rect x="377.87" y="507.59" class="st1" width="1.8" height="27.7"/>
		</g>
		<g>
			<g>
				<g>
					<rect x="354.45" y="533.47" class="st1" width="17.87" height="1.8"/>
				</g>
			</g>
			<g>
				<rect x="354.38" y="507.94" class="st1" width="1.8" height="27.34"/>
			</g>
		</g>
		<g>
			<g>
				<polygon class="st1" points="314.64,508.3 313.72,508.3 301.94,528.13 298.93,523.25 290.57,508.3 289.65,508.3 288.31,508.32 
					288.31,535.28 290.11,535.28 290.11,511.06 297.41,524.22 300.79,529.7 301.95,531.54 314.18,511.06 314.18,535.28 
					315.98,535.28 315.98,508.32 				"/>
			</g>
		</g>
		<g>
			<g>
				<rect x="71.37" y="508.03" class="st1" width="22.77" height="1.8"/>
			</g>
			<g>
				<rect x="81.86" y="508.93" class="st1" width="1.8" height="26.33"/>
			</g>
			<g>
				<g>
					<rect x="154.63" y="508.05" class="st1" width="22.77" height="1.8"/>
				</g>
				<g>
					<rect x="165.12" y="508.95" class="st1" width="1.8" height="26.34"/>
				</g>
			</g>
			<g>
				<rect x="99.34" y="507.57" class="st1" width="1.8" height="27.7"/>
			</g>
			<g>
				<rect x="99.66" y="520.62" class="st1" width="22.08" height="1.8"/>
			</g>
			<g>
				<rect x="120.04" y="507.57" class="st1" width="1.8" height="27.7"/>
			</g>
			<g>
				<g>
					<g>
						<path class="st1" d="M154.97,534.83l-3.51-7.34h-17.52l-3.35,7.34h-0.57l12.14-26.62h0.92l12.41,26.62H154.97z M134.22,526.73
							h16.98l-8.53-18.16L134.22,526.73z"/>
					</g>
					<g>
						<path class="st1" d="M143.36,507.76h-1.49l-12.32,27.03c-0.08,0.17-0.1,0.21-0.21,0.49h1.55l3.35-7.34h16.94l3.51,7.34h1.5
							c-0.07-0.17-0.13-0.31-0.21-0.49L143.36,507.76L143.36,507.76z M134.93,526.28l7.13-15.33l0.61-1.32l0.61,1.3l7.21,15.35
							H134.93L134.93,526.28z"/>
					</g>
				</g>
			</g>
		</g>
		<g>
			<g>
				<g>
					<path class="st1" d="M280.7,534.83l-3.51-7.34h-17.52l-3.35,7.34h-0.57l12.14-26.62h0.92l12.41,26.62H280.7z M259.95,526.73
						h16.98l-8.53-18.16L259.95,526.73z"/>
				</g>
				<g>
					<path class="st1" d="M269.09,507.76h-1.49l-12.32,27.03c-0.08,0.17-0.1,0.21-0.21,0.49h1.55l3.35-7.34h16.94l3.51,7.34h1.5
						c-0.07-0.17-0.13-0.31-0.21-0.49L269.09,507.76L269.09,507.76z M260.66,526.28l7.13-15.33l0.61-1.32l0.61,1.3l7.21,15.35
						H260.66L260.66,526.28z"/>
				</g>
			</g>
		</g>
		<g>
			<g>
				<g>
					<path class="st1" d="M347.43,534.83l-3.51-7.34h-17.52l-3.35,7.34h-0.57l12.14-26.62h0.92l12.41,26.62H347.43z M326.68,526.73
						h16.98l-8.53-18.16L326.68,526.73z"/>
				</g>
				<g>
					<path class="st1" d="M335.82,507.76h-1.49L322,534.8c-0.08,0.17-0.1,0.21-0.21,0.49h1.55l3.35-7.34h16.94l3.51,7.34h1.5
						c-0.07-0.17-0.13-0.31-0.21-0.49L335.82,507.76L335.82,507.76z M327.39,526.28l7.13-15.33l0.61-1.32l0.61,1.3l7.21,15.35
						H327.39L327.39,526.28z"/>
				</g>
			</g>
		</g>
		<g>
			<g>
				<rect x="237.36" y="508.44" class="st1" width="12.74" height="1.8"/>
			</g>
			<g>
				<path class="st1" d="M242.55,536.18c-3.31,0-6.05-2.38-7.29-4.08l1.45-1.06c0.16,0.22,4.01,5.34,8.77,2.46
					c1.58-0.95,2.63-2.7,2.82-4.66l0-19.5h1.8v19.59c-0.24,2.62-1.62,4.87-3.68,6.12C245.08,535.85,243.78,536.18,242.55,536.18z"/>
			</g>
		</g>
		<g>
			<path class="st1" d="M212.4,536.19c-5.24,0-9.2-2.42-9.41-2.55l0.95-1.53c0.06,0.04,6.01,3.65,12.59,1.69
				c2.56-0.77,3.72-2.96,3.94-4.61c0.12-1.31-0.15-2.32-0.85-3.17c-1.28-1.52-4.03-2.47-8.18-2.8c-4.28-0.35-7.19-1.57-8.67-3.63
				c-1.27-1.78-0.99-3.57-0.92-3.93c0.31-2.21,1.86-5.11,5.22-6.06c7.39-2.09,12.86,1.31,13.09,1.46l-0.97,1.52l0.48-0.76
				l-0.48,0.76c-0.05-0.03-5.04-3.11-11.63-1.25c-2.54,0.72-3.7,2.93-3.93,4.6l-0.02,0.1c-0.01,0.04-0.28,1.28,0.64,2.54
				c1.15,1.57,3.68,2.55,7.32,2.84c4.71,0.38,7.79,1.51,9.41,3.44c1.02,1.22,1.44,2.7,1.26,4.53c-0.3,2.21-1.84,5.12-5.22,6.13
				C215.44,536,213.87,536.19,212.4,536.19z"/>
		</g>
	</g>
	<g>
		<linearGradient id="SVGID_1_" gradientUnits="userSpaceOnUse" x1="241.4178" y1="350.8326" x2="235.1522" y2="43.6813">
			<stop  offset="0.1858" style="stop-color:#66AADD"/>
			<stop  offset="0.4958" style="stop-color:#8E84BF"/>
			<stop  offset="1" style="stop-color:#D7408A"/>
		</linearGradient>
		<path class="st2" d="M330.91,14.4c0.06,1.12-1.14,1.15-1.97,1.42c-12.44,4-18.49,13.48-21.53,25.42
			c-1.15,4.53-1.15,9.19-1.15,13.85c0,37.27-0.03,74.53-0.06,111.8c0,2.08-0.21,4.16-0.3,6.24c0,31.14,1.5,62.35-0.4,93.34
			c-2.1,34.02-18.71,60.48-51.8,72.31c-28.53,10.18-57.13,9.25-82.44-10.52c-15.18-11.86-23.53-27.9-26.8-46.71
			c-1.18-6.82-1.76-13.56,0.88-20.3c4.93-12.65,18.11-20.7,30.98-18.65c13.45,2.13,24.12,14.42,24.28,28.22
			c0.11,8.92-4.26,15.98-9.91,22.41c-1.95,2.24-3.95,4.47-5.89,6.74c-9.68,11.45-7.08,24.28,5.19,33.17
			c4.99,3.62,10.74,5.12,16.63,6.23c8.16,1.54,16.36,1.5,24.51-0.06c11.99-2.31,19.59-9.62,23.39-21.08
			c3.59-10.85,5.47-22.12,5.55-33.46c0.29-48.18,0.18-96.37,0.22-144.55c0-1.94,0.21-3.87,0.32-5.79c0-0.9-0.02-1.78-0.03-2.67
			c0.7-1.15,0.7-2.31,0-3.46c-0.02-7.86-0.03-15.7-0.05-23.56c0.75-2,0.75-3.99-0.02-5.97c-0.08-15.86-0.13-31.73-0.24-47.59
			c-0.06-9.4-2.61-17.96-8.42-25.5c-3.38-4.4-7.56-7.62-12.77-9.49c-1.39-0.5-2.85-0.9-4.02-2.19c0.96-0.99,2.18-0.58,3.2-0.58
			c29.62-0.05,59.23-0.06,88.85-0.1c0.45,0,0.91-0.08,1.34,0.02C329.36,13.51,330.82,12.78,330.91,14.4z"/>
		<path class="st3" d="M260.51,98.76c0.77,1.99,0.76,3.98,0.01,5.97C260.09,102.74,260.11,100.75,260.51,98.76z"/>
		<path class="st3" d="M260.57,128.31c0.71,1.15,0.72,2.3,0.01,3.46C260.17,130.61,260.17,129.46,260.57,128.31z"/>
		
			<linearGradient id="SVGID_00000082359332580386418860000007321990583149139364_" gradientUnits="userSpaceOnUse" x1="216.6054" y1="47.396" x2="131.9829" y2="187.085">
			<stop  offset="0" style="stop-color:#D7408A"/>
			<stop  offset="0.1012" style="stop-color:#C74F96"/>
			<stop  offset="0.365" style="stop-color:#A271B0"/>
			<stop  offset="0.6109" style="stop-color:#8889C3"/>
			<stop  offset="0.83" style="stop-color:#7898CF"/>
			<stop  offset="1" style="stop-color:#729DD3"/>
		</linearGradient>
		<path style="fill:url(#SVGID_00000082359332580386418860000007321990583149139364_);" d="M121.41,7.97c0,0,53.75-3.46,87.86,46.38
			c0,0,16.22,22.37,18.54,51.09l0.86,24.32v41.99v43.77l-0.15,7.44c0,0-0.27,4.82-3.43,4.66s-3.16-0.16-3.16-0.16
			s-41.4-0.66-73.04-35.2c0,0-23.04-21.26-28-62.49c0,0-0.65-20.85-0.66-36.13l-0.1-81.53C120.12,12.09,120.31,8.44,121.41,7.97z"/>
	</g>
</g>
</svg>
