<svg id="Layer_2" data-name="Layer 2" xmlns="http://www.w3.org/2000/svg" xmlns:xlink="http://www.w3.org/1999/xlink" viewBox="0 0 369.84 164.07"><defs><style>.cls-1,.cls-2{fill:#474748;}.cls-2{stroke:#474748;stroke-miterlimit:10;stroke-width:0.7px;}.cls-3{fill:url(#linear-gradient);}.cls-4{fill:#828fc7;}.cls-5{fill:url(#linear-gradient-2);}</style><linearGradient id="linear-gradient" x1="58.92" y1="-0.48" x2="55.88" y2="148.73" gradientTransform="matrix(1, 0, 0, -1, 0, 166.1)" gradientUnits="userSpaceOnUse"><stop offset="0.19" stop-color="#6ad"/><stop offset="0.5" stop-color="#8e84bf"/><stop offset="1" stop-color="#d7408a"/></linearGradient><linearGradient id="linear-gradient-2" x1="46.87" y1="146.92" x2="5.76" y2="79.06" gradientTransform="matrix(1, 0, 0, -1, 0, 166.1)" gradientUnits="userSpaceOnUse"><stop offset="0" stop-color="#d7408a"/><stop offset="0.1" stop-color="#c74f96"/><stop offset="0.36" stop-color="#a271b0"/><stop offset="0.61" stop-color="#8889c3"/><stop offset="0.83" stop-color="#7898cf"/><stop offset="1" stop-color="#729dd3"/></linearGradient></defs><path class="cls-1" d="M127.37,36v.53h.23a3.76,3.76,0,0,1,2.83,1c1,1.11,1.55,3,1.55,5.93v38.7c0,2.83,0,7.69-3.83,8.35a6.34,6.34,0,0,1-1.1.21,11,11,0,0,1-8-1.72,2.56,2.56,0,0,1-.84-1c-1.09-2.4.65-4.72,1.55-5.72l.18-.19a4.76,4.76,0,0,1,.34-.38,5,5,0,0,0,1.32-3.5,4.74,4.74,0,0,0-1.12-2.78,5.67,5.67,0,0,0-.61-.59,4,4,0,0,0-3.2-.86,5.4,5.4,0,0,0-4.46,5.1,8.51,8.51,0,0,0,0,1.16c.14,2.37,1.74,5.17,3.32,7.2a7.61,7.61,0,0,0,1.52,1.48c3.88,2.77,9.35,2.39,9.35,2.39a14.9,14.9,0,0,0,8.46-3.55,11.08,11.08,0,0,0,2.85-3.84,16.6,16.6,0,0,0,1-5.73c0-1.07,0-2.14,0-3.18V43.46c0-2.94.5-4.83,1.55-5.93a3.76,3.76,0,0,1,2.79-1h.28V36H127.37Z"/><path class="cls-1" d="M250.69,90.78v.53H234.61v-.53h.24a3.72,3.72,0,0,0,2.83-1c1.06-1.09,1.55-3,1.55-5.94l-.52-43.59-20,47.12-.87-1.7L198.49,44.94l0,39.93a1.48,1.48,0,0,0,0,.21v.28h0c.18,3.39,1.9,5.43,4.54,5.43h.23v.54h-11v-.54h.24c2.71,0,4.45-2.16,4.54-5.71v0c0-.06,0-.12,0-.18V43.54h0c-.16-3.63-1.51-5.36-4.14-5.36h-.25v-.53h10.66l18.59,40.21,16.93-40.21h11.82v.53h-.16a3.9,3.9,0,0,0-2.91,1c-1.06,1.1-1.56,3-1.55,5.94V83.8c0,3,.5,4.85,1.57,5.93a3.63,3.63,0,0,0,2.82,1Z"/><path class="cls-1" d="M171.64,73.09H150.89l-3.37,9.11c-1,3-1.86,3.47-1.93,6.8,0,.93.72,1.8,2.51,1.8h.26v.52h-9.52V90.8H139c3,0,5-1.91,6.76-6.29l16.45-47.22h2.69l19.32,47.29c1.61,3.55,3.35,5.41,5.62,6a3.61,3.61,0,0,0,.48.1c.2,0,.73.07,1,.1v.52H175.05v-.52c.44,0,.92,0,1.13,0,.44-.08.51-.16,1-.84.71-1,.25-2.95-.55-5.13Zm-.47-1.15L160.51,46.76l-9.13,25.18Z"/><path class="cls-1" d="M285.08,73.09H264.33L261,82.2c-1,3-1.87,3.47-1.93,6.8,0,.93.72,1.8,2.5,1.8h.26v.52h-9.51V90.8h.17c2.95,0,5-1.91,6.75-6.29l16.46-47.22h2.68l19.32,47.29c1.62,3.55,3.36,5.41,5.62,6a4,4,0,0,0,.48.1c.2,0,.74.07,1.06.1v.52H288.49v-.52c.44,0,.92,0,1.13,0,.44-.08.52-.16,1-.84.72-1,.25-2.95-.54-5.13Zm-.47-1.15L274,46.76l-9.13,25.18Z"/><path class="cls-1" d="M323.12,91.31H306.43v-.53h.08a4.21,4.21,0,0,0,3.1-1c1.09-1.09,1.6-3,1.6-5.94V45.13c0-2.94-.51-4.83-1.6-5.93a3.94,3.94,0,0,0-2.94-1h-.25v-.54h16.69v.54h-.29a4,4,0,0,0-2.89,1c-1.1,1.1-1.61,3-1.61,5.93V90.76h11.62c6.47,0,12.92-2.3,16.44-7.28a13.93,13.93,0,0,1,1.39-1.91h0l-4.18,9.75Z"/><path class="cls-1" d="M365.41,38.17a3.74,3.74,0,0,0-2.79,1c-1.06,1.1-1.55,3-1.55,5.93V83.82c0,3,.49,4.85,1.55,5.94a3.7,3.7,0,0,0,2.82,1h.25v.53H349.62v-.53h.08a4,4,0,0,0,3-1c1.06-1.09,1.55-3,1.55-5.93V45.14c0-2.94-.49-4.83-1.55-5.93a3.73,3.73,0,0,0-2.83-1h-.23v-.53h16.06v.53h-.28Z"/><rect class="cls-2" x="220.09" y="111.3" width="1.04" height="16.04"/><rect class="cls-2" x="327.2" y="111.3" width="1.04" height="16.04"/><rect class="cls-2" x="313.64" y="126.29" width="10.35" height="1.04"/><rect class="cls-2" x="313.59" y="111.5" width="1.04" height="15.84"/><polygon class="cls-2" points="290.58 111.71 290.04 111.71 283.22 123.2 281.48 120.37 276.63 111.71 276.1 111.71 275.33 111.72 275.33 127.34 276.37 127.34 276.37 113.31 280.6 120.93 282.56 124.11 283.23 125.17 290.31 113.31 290.31 127.34 291.35 127.34 291.35 111.72 290.58 111.71"/><rect class="cls-2" x="149.67" y="111.56" width="13.19" height="1.04"/><rect class="cls-2" x="155.75" y="112.08" width="1.04" height="15.25"/><rect class="cls-2" x="197.9" y="111.57" width="13.19" height="1.04"/><rect class="cls-2" x="203.97" y="112.09" width="1.04" height="15.26"/><rect class="cls-2" x="165.87" y="111.29" width="1.04" height="16.04"/><rect class="cls-2" x="166.06" y="118.85" width="12.79" height="1.04"/><rect class="cls-2" x="177.86" y="111.29" width="1.04" height="16.04"/><path class="cls-2" d="M198.09,127.08l-2-4.25H185.91L184,127.08h-.33l7-15.42h.54l7.19,15.42Zm-12-4.69h9.83L191,111.87Z"/><path class="cls-2" d="M191.37,111.4h-.86l-7.14,15.66a2.1,2.1,0,0,0-.12.28h.9l1.94-4.25h9.81l2,4.25h.87c0-.1-.07-.18-.12-.28l-7.31-15.66Zm-4.88,10.73,4.13-8.88.35-.77.35.76,4.18,8.89Z"/><path class="cls-2" d="M270.92,127.08l-2-4.25H258.74l-1.94,4.25h-.33l7-15.42H264l7.19,15.42Zm-12-4.69h9.83l-4.94-10.52Z"/><path class="cls-2" d="M264.19,111.4h-.86l-7.14,15.66-.12.28h.9l1.94-4.25h9.81l2,4.25h.87l-.13-.28-7.31-15.66Zm-4.88,10.73,4.13-8.88.35-.77.36.76,4.17,8.89Z"/><path class="cls-2" d="M309.57,127.08l-2-4.25H297.39l-1.94,4.25h-.33l7-15.42h.53l7.19,15.42Zm-12-4.69h9.84l-4.95-10.52Z"/><path class="cls-2" d="M302.84,111.4H302l-7.14,15.66a1.83,1.83,0,0,0-.12.29h.9l1.94-4.26h9.81l2,4.26h.87c0-.1-.08-.18-.12-.29l-7.31-15.66ZM298,122.13l4.13-8.88.35-.77.36.76,4.17,8.89Z"/><rect class="cls-2" x="245.82" y="111.79" width="7.38" height="1.04"/><path class="cls-2" d="M248.82,127.86a5.64,5.64,0,0,1-4.22-2.36l.84-.62c.09.13,2.32,3.1,5.08,1.43a3.53,3.53,0,0,0,1.63-2.7V112.32h1v11.34a4.56,4.56,0,0,1-2.13,3.55A4.33,4.33,0,0,1,248.82,127.86Z"/><path class="cls-2" d="M231.36,127.87a11.09,11.09,0,0,1-5.45-1.48l.55-.89a9.8,9.8,0,0,0,7.29,1,3.23,3.23,0,0,0,2.28-2.67,2.34,2.34,0,0,0-.49-1.83c-.74-.88-2.33-1.43-4.74-1.62s-4.16-.91-5-2.11a3,3,0,0,1-.53-2.27,4.24,4.24,0,0,1,3-3.51,9.88,9.88,0,0,1,7.58.84l-.56.88.28-.44-.28.44a9,9,0,0,0-6.74-.72,3.21,3.21,0,0,0-2.27,2.66v.06a1.87,1.87,0,0,0,.37,1.47c.66.91,2.13,1.48,4.24,1.65,2.73.22,4.51.87,5.45,2a3.39,3.39,0,0,1,.73,2.62,4.32,4.32,0,0,1-3,3.55A8.79,8.79,0,0,1,231.36,127.87Z"/><path class="cls-3" d="M102.39,3.15c0,.54-.55.56-1,.69-6,1.94-9,6.55-10.46,12.35a27.07,27.07,0,0,0-.56,6.73q0,27.15,0,54.31c0,1-.1,2-.15,3,0,15.12.73,30.29-.19,45.34C89,142.13,81,155,64.89,160.73c-13.86,4.94-27.76,4.49-40-5.11-7.38-5.76-11.43-13.56-13-22.69-.57-3.32-.86-6.59.43-9.87,2.39-6.14,8.79-10,15.05-9a14.29,14.29,0,0,1,11.79,13.7c0,4.34-2.07,7.77-4.81,10.89-1,1.09-1.92,2.17-2.86,3.27-4.71,5.57-3.44,11.8,2.52,16.12A19.18,19.18,0,0,0,42,161a31.75,31.75,0,0,0,11.9,0c5.83-1.13,9.52-4.68,11.36-10.24A52.83,52.83,0,0,0,68,134.49c.14-23.4.09-46.81.11-70.22,0-.94.1-1.88.15-2.81,0-.44,0-.87,0-1.3a1.51,1.51,0,0,0,0-1.68L68.2,47a3.88,3.88,0,0,0,0-2.9q0-11.55-.11-23.11A19.89,19.89,0,0,0,64,8.63,13.37,13.37,0,0,0,57.78,4a4.3,4.3,0,0,1-2-1.07c.47-.48,1.06-.28,1.56-.28l43.16,0a3.52,3.52,0,0,1,.65,0C101.64,2.72,102.35,2.36,102.39,3.15Z"/><path class="cls-4" d="M68.19,44.13a3.93,3.93,0,0,1,0,2.9A7.08,7.08,0,0,1,68.19,44.13Z"/><path class="cls-4" d="M68.22,58.48a1.51,1.51,0,0,1,0,1.69A2.51,2.51,0,0,1,68.22,58.48Z"/><path class="cls-5" d="M.62,0A51,51,0,0,1,43.3,22.56s7.88,10.86,9,24.81l.42,11.82v41.66l-.08,3.61s-.13,2.35-1.66,2.27l-1.54-.08A53.5,53.5,0,0,1,14,89.55S2.78,79.22.37,59.19c0,0-.32-10.12-.32-17.55L0,2S.09.25.62,0Z"/></svg>