<svg id="Layer_2" data-name="Layer 2" xmlns="http://www.w3.org/2000/svg" xmlns:xlink="http://www.w3.org/1999/xlink" viewBox="0 0 451.51 549.73"><defs><style>.cls-1{fill:#fff;}.cls-2{fill:url(#linear-gradient);}.cls-3{fill:#828fc7;}.cls-4{fill:url(#linear-gradient-2);}</style><linearGradient id="linear-gradient" x1="241.65" y1="201.17" x2="235.38" y2="508.32" gradientTransform="matrix(1, 0, 0, -1, 0, 552)" gradientUnits="userSpaceOnUse"><stop offset="0.19" stop-color="#6ad"/><stop offset="0.5" stop-color="#8e84bf"/><stop offset="1" stop-color="#d7408a"/></linearGradient><linearGradient id="linear-gradient-2" x1="216.84" y1="504.6" x2="132.21" y2="364.9" gradientTransform="matrix(1, 0, 0, -1, 0, 552)" gradientUnits="userSpaceOnUse"><stop offset="0" stop-color="#d7408a"/><stop offset="0.1" stop-color="#c74f96"/><stop offset="0.36" stop-color="#a271b0"/><stop offset="0.61" stop-color="#8889c3"/><stop offset="0.83" stop-color="#7898cf"/><stop offset="1" stop-color="#729dd3"/></linearGradient></defs><path class="cls-1" d="M33.09,377.54v.92h.41a6.43,6.43,0,0,1,4.88,1.77c1.82,1.91,2.67,5.16,2.67,10.24l0,66.8c.06,4.9.09,13.29-6.61,14.43a13.2,13.2,0,0,1-1.9.36,18.92,18.92,0,0,1-13.78-3,4.49,4.49,0,0,1-1.45-1.79c-1.88-4.13,1.13-8.15,2.68-9.87l.31-.33a7.22,7.22,0,0,1,.59-.65,8.61,8.61,0,0,0,2.27-6,8.08,8.08,0,0,0-1.93-4.8,8.51,8.51,0,0,0-1.05-1,7,7,0,0,0-5.52-1.48A9.32,9.32,0,0,0,7,451.9a16.16,16.16,0,0,0,0,2c.25,4.1,3,8.93,5.74,12.43a12.66,12.66,0,0,0,2.62,2.55C22,473.67,31.49,473,31.49,473c4.49-.09,10.65-2.65,14.61-6.13A18.88,18.88,0,0,0,51,460.26a28.64,28.64,0,0,0,1.8-9.89c0-1.85,0-3.7,0-5.49V390.47c0-5.08.85-8.34,2.67-10.24a6.47,6.47,0,0,1,4.82-1.79h.48v-.92H33.09Z"/><path class="cls-1" d="M246,472.16v.92H218.24v-.92h.41a6.42,6.42,0,0,0,4.9-1.77c1.82-1.87,2.67-5.12,2.67-10.24l-.89-75.27-34.48,81.35-1.5-2.92L155.89,393,156,462c0,.12,0,.24,0,.36v.5h0c.3,5.84,3.27,9.37,7.83,9.37h.4v.92H145.17v-.92h.4c4.68,0,7.69-3.74,7.85-9.86v-.05c0-.1,0-.21,0-.32V390.58c-.27-6.27-2.61-9.25-7.15-9.25h-.43v-.92h18.41l32.1,69.42,29.22-69.42H246v.92h-.27a6.76,6.76,0,0,0-5,1.77c-1.84,1.9-2.69,5.16-2.67,10.26v66.75c0,5.11.86,8.37,2.7,10.24a6.3,6.3,0,0,0,4.87,1.81Z"/><path class="cls-1" d="M109.52,441.61H73.7l-5.81,15.74c-1.64,5.09-3.22,6-3.33,11.73,0,1.62,1.24,3.12,4.32,3.12h.45v.89H52.9v-.89h.3c5.1,0,8.69-3.3,11.66-10.86l28.41-81.53H97.9l33.36,81.65c2.79,6.13,5.79,9.34,9.7,10.4a6.2,6.2,0,0,0,.83.18c.35,0,1.27.12,1.82.17v.89h-28.2v-.89c.76,0,1.59,0,2,0,.76-.14.89-.29,1.73-1.46,1.23-1.76.43-5.09-.94-8.86Zm-.81-2L90.32,396.16,74.55,439.64Z"/><path class="cls-1" d="M305.38,441.61H269.56l-5.81,15.74c-1.64,5.09-3.22,6-3.33,11.73,0,1.62,1.24,3.12,4.32,3.12h.45v.89H248.76v-.89h.3c5.1,0,8.69-3.3,11.66-10.86l28.41-81.53h4.63l33.36,81.65c2.79,6.13,5.79,9.34,9.7,10.4a6.2,6.2,0,0,0,.83.18c.35,0,1.27.12,1.82.17v.89h-28.2v-.89c.76,0,1.59,0,2,0,.76-.14.89-.29,1.73-1.46,1.23-1.76.43-5.09-.94-8.86Zm-.81-2-18.39-43.48-15.77,43.48Z"/><path class="cls-1" d="M371.05,473.08H342.24v-.92h.14c2.34,0,4.09-.53,5.35-1.77,1.89-1.88,2.77-5.14,2.77-10.24v-66.8c0-5.08-.88-8.34-2.77-10.24a6.82,6.82,0,0,0-5.07-1.77h-.43v-.92H371v.92h-.5a6.83,6.83,0,0,0-5,1.79c-1.89,1.9-2.77,5.16-2.77,10.24v78.75h20.06c11.17,0,22.31-4,28.38-12.58a23.78,23.78,0,0,1,2.4-3.3h0l-7.21,16.84Z"/><path class="cls-1" d="M444.07,381.33a6.48,6.48,0,0,0-4.82,1.79c-1.82,1.9-2.67,5.16-2.67,10.24v66.79c0,5.1.85,8.36,2.67,10.24a6.34,6.34,0,0,0,4.87,1.78h.43v.92H416.81v-.92H417a6.83,6.83,0,0,0,5.16-1.77c1.82-1.88,2.67-5.14,2.67-10.24v-66.8c0-5.08-.85-8.34-2.67-10.24a6.43,6.43,0,0,0-4.88-1.77h-.41v-.92h27.74v.92h-.49Z"/><rect class="cls-1" x="193.18" y="507.59" width="1.8" height="27.7"/><rect class="cls-1" x="378.1" y="507.59" width="1.8" height="27.7"/><rect class="cls-1" x="354.68" y="533.47" width="17.87" height="1.8"/><rect class="cls-1" x="354.61" y="507.94" width="1.8" height="27.34"/><polygon class="cls-1" points="314.87 508.3 313.95 508.3 302.17 528.13 299.16 523.25 290.8 508.3 289.88 508.3 288.54 508.32 288.54 535.28 290.34 535.28 290.34 511.06 297.64 524.22 301.02 529.7 302.18 531.54 314.41 511.06 314.41 535.28 316.21 535.28 316.21 508.32 314.87 508.3"/><rect class="cls-1" x="71.6" y="508.03" width="22.77" height="1.8"/><rect class="cls-1" x="82.09" y="508.93" width="1.8" height="26.33"/><rect class="cls-1" x="154.86" y="508.05" width="22.77" height="1.8"/><rect class="cls-1" x="165.35" y="508.95" width="1.8" height="26.34"/><rect class="cls-1" x="99.57" y="507.57" width="1.8" height="27.7"/><rect class="cls-1" x="99.89" y="520.62" width="22.08" height="1.8"/><rect class="cls-1" x="120.27" y="507.57" width="1.8" height="27.7"/><path class="cls-1" d="M155.2,534.83l-3.51-7.34H134.17l-3.35,7.34h-.57l12.14-26.62h.92l12.41,26.62Zm-20.75-8.1h17l-8.53-18.16Z"/><path class="cls-1" d="M143.59,507.76H142.1l-12.32,27c-.08.17-.1.21-.21.49h1.55l3.35-7.34h16.94l3.51,7.34h1.5l-.21-.49-12.62-27Zm-8.43,18.52L142.29,511l.61-1.32.61,1.3,7.21,15.35Z"/><path class="cls-1" d="M280.93,534.83l-3.51-7.34H259.9l-3.35,7.34H256l12.14-26.62H269l12.41,26.62Zm-20.75-8.1h17l-8.53-18.16Z"/><path class="cls-1" d="M269.32,507.76h-1.49l-12.32,27c-.08.17-.1.21-.21.49h1.55l3.35-7.34h16.94l3.51,7.34h1.5l-.21-.49-12.62-27Zm-8.43,18.52L268,511l.61-1.32.61,1.3,7.21,15.35Z"/><path class="cls-1" d="M347.66,534.83l-3.51-7.34H326.63l-3.35,7.34h-.57l12.14-26.62h.92l12.41,26.62Zm-20.75-8.1h17l-8.53-18.16Z"/><path class="cls-1" d="M336.05,507.76h-1.49l-12.33,27c-.08.17-.1.21-.21.49h1.55l3.35-7.34h16.94l3.51,7.34h1.5l-.21-.49-12.61-27Zm-8.43,18.52L334.75,511l.61-1.32.61,1.3,7.21,15.35Z"/><rect class="cls-1" x="237.59" y="508.44" width="12.74" height="1.8"/><path class="cls-1" d="M242.78,536.18c-3.31,0-6.05-2.38-7.29-4.08l1.45-1.06c.16.22,4,5.34,8.77,2.46a6.1,6.1,0,0,0,2.82-4.66v-19.5h1.8v19.59a7.92,7.92,0,0,1-3.68,6.12A7.46,7.46,0,0,1,242.78,536.18Z"/><path class="cls-1" d="M212.63,536.19a19.32,19.32,0,0,1-9.41-2.55l.95-1.53c.06,0,6,3.65,12.59,1.69a5.61,5.61,0,0,0,3.94-4.61,4.1,4.1,0,0,0-.85-3.17c-1.28-1.52-4-2.47-8.18-2.8s-7.19-1.57-8.67-3.63a5.21,5.21,0,0,1-.92-3.93,7.34,7.34,0,0,1,5.22-6.06,17,17,0,0,1,13.09,1.46l-1,1.52.48-.76-.48.76a15.47,15.47,0,0,0-11.63-1.25,5.55,5.55,0,0,0-3.93,4.6l0,.1a3.33,3.33,0,0,0,.64,2.54c1.15,1.57,3.68,2.55,7.32,2.84,4.71.38,7.79,1.51,9.41,3.44a5.82,5.82,0,0,1,1.26,4.53,7.45,7.45,0,0,1-5.22,6.13A15.58,15.58,0,0,1,212.63,536.19Z"/><path class="cls-2" d="M331.14,14.4c.06,1.12-1.14,1.15-2,1.42-12.44,4-18.49,13.48-21.53,25.42-1.15,4.53-1.15,9.19-1.15,13.85q0,55.91-.06,111.8c0,2.08-.21,4.16-.3,6.24,0,31.14,1.5,62.35-.4,93.34-2.1,34-18.71,60.48-51.8,72.31C225.4,349,196.8,348,171.49,328.26c-15.18-11.86-23.53-27.9-26.8-46.71-1.18-6.82-1.76-13.56.88-20.3,4.93-12.65,18.11-20.7,31-18.65,13.45,2.13,24.12,14.42,24.28,28.22.11,8.92-4.26,16-9.91,22.41C189,295.47,187,297.7,185,300c-9.68,11.45-7.08,24.28,5.19,33.17,5,3.62,10.74,5.12,16.63,6.23a65.18,65.18,0,0,0,24.51-.06c12-2.31,19.59-9.62,23.39-21.08a108.9,108.9,0,0,0,5.55-33.46c.29-48.18.18-96.37.22-144.55,0-1.94.21-3.87.32-5.79,0-.9,0-1.78,0-2.67a3.11,3.11,0,0,0,0-3.46c0-7.86,0-15.7-.05-23.56a8.1,8.1,0,0,0,0-6c-.08-15.86-.13-31.73-.24-47.59-.06-9.4-2.61-18-8.42-25.5a27.61,27.61,0,0,0-12.77-9.49,8.89,8.89,0,0,1-4-2.19c1-1,2.18-.58,3.2-.58q44.43-.08,88.85-.1a6,6,0,0,1,1.34,0C329.59,13.51,331.05,12.78,331.14,14.4Z"/><path class="cls-3" d="M260.74,98.76a8.1,8.1,0,0,1,0,6A14.47,14.47,0,0,1,260.74,98.76Z"/><path class="cls-3" d="M260.8,128.31a3.08,3.08,0,0,1,0,3.46A5.08,5.08,0,0,1,260.8,128.31Z"/><path class="cls-4" d="M121.64,8s53.75-3.46,87.86,46.38c0,0,16.22,22.37,18.54,51.09l.86,24.32v85.76l-.15,7.44s-.27,4.82-3.43,4.66l-3.16-.16s-41.4-.66-73-35.2c0,0-23-21.26-28-62.49,0,0-.65-20.85-.66-36.13l-.1-81.53S120.54,8.44,121.64,8Z"/></svg>