<svg id="Layer_2" data-name="Layer 2" xmlns="http://www.w3.org/2000/svg" xmlns:xlink="http://www.w3.org/1999/xlink" viewBox="0 0 369.84 164.07"><defs><style>.cls-1{fill:#fff;}.cls-2{fill:url(#linear-gradient);}.cls-3{fill:#828fc7;}.cls-4{fill:url(#linear-gradient-2);}</style><linearGradient id="linear-gradient" x1="60.99" y1="-0.6" x2="57.95" y2="148.61" gradientTransform="matrix(1, 0, 0, -1, 0, 166.1)" gradientUnits="userSpaceOnUse"><stop offset="0.19" stop-color="#6ad"/><stop offset="0.5" stop-color="#8e84bf"/><stop offset="1" stop-color="#d7408a"/></linearGradient><linearGradient id="linear-gradient-2" x1="48.94" y1="146.8" x2="7.83" y2="78.94" gradientTransform="matrix(1, 0, 0, -1, 0, 166.1)" gradientUnits="userSpaceOnUse"><stop offset="0" stop-color="#d7408a"/><stop offset="0.1" stop-color="#c74f96"/><stop offset="0.36" stop-color="#a271b0"/><stop offset="0.61" stop-color="#8889c3"/><stop offset="0.83" stop-color="#7898cf"/><stop offset="1" stop-color="#729dd3"/></linearGradient></defs><path class="cls-1" d="M129.44,36.1v.53h.23a3.76,3.76,0,0,1,2.83,1c1.06,1.11,1.55,3,1.55,5.93v38.7c0,2.83.05,7.69-3.83,8.35a6.34,6.34,0,0,1-1.1.21,11,11,0,0,1-8-1.72,2.56,2.56,0,0,1-.84-1c-1.09-2.4.65-4.73,1.55-5.72l.18-.19a4.76,4.76,0,0,1,.34-.38,5,5,0,0,0,1.32-3.5,4.74,4.74,0,0,0-1.12-2.78,5.67,5.67,0,0,0-.61-.59,4,4,0,0,0-3.2-.86,5.4,5.4,0,0,0-4.46,5.1,8.51,8.51,0,0,0,0,1.16c.14,2.37,1.74,5.17,3.32,7.2A7.61,7.61,0,0,0,119.16,89c3.88,2.76,9.35,2.39,9.35,2.39A14.9,14.9,0,0,0,137,87.85,11.08,11.08,0,0,0,139.82,84a16.6,16.6,0,0,0,1-5.73c0-1.07,0-2.14,0-3.18V43.58c0-2.94.5-4.83,1.55-5.93a3.76,3.76,0,0,1,2.79-1h.28v-.54H129.44Z"/><path class="cls-1" d="M252.76,90.9v.53H236.68V90.9h.24a3.72,3.72,0,0,0,2.83-1c1.06-1.09,1.55-3,1.55-5.94l-.52-43.59-20,47.12-.87-1.7L200.56,45.06l0,39.93a1.48,1.48,0,0,0,0,.21v.28h0c.18,3.39,1.9,5.43,4.54,5.43h.23v.53h-11v-.53h.24c2.71,0,4.45-2.16,4.54-5.71v0c0-.06,0-.12,0-.18V43.66h0C199,40,197.63,38.29,195,38.29h-.25v-.53h10.66L224,78l16.93-40.21h11.82v.53h-.16a3.9,3.9,0,0,0-2.91,1c-1.06,1.1-1.56,3-1.55,5.94V83.92c0,3,.5,4.85,1.57,5.93a3.63,3.63,0,0,0,2.82,1.05Z"/><path class="cls-1" d="M173.71,73.21H153l-3.37,9.11c-1,3-1.86,3.47-1.93,6.8,0,.93.72,1.8,2.51,1.8h.26v.52h-9.52v-.52h.17c3,0,5-1.91,6.76-6.29l16.45-47.22H167L186.3,84.7c1.61,3.55,3.35,5.41,5.62,6a3.61,3.61,0,0,0,.48.1c.2,0,.73.07,1,.1v.51H177.12v-.51c.44,0,.92,0,1.13,0,.44-.08.51-.16,1-.84.71-1,.25-3-.55-5.13Zm-.47-1.15L162.59,46.88l-9.14,25.18Z"/><path class="cls-1" d="M287.15,73.21H266.4L263,82.32c-1,3-1.87,3.47-1.93,6.8,0,.93.72,1.8,2.5,1.8h.26v.52h-9.51v-.52h.17c3,0,5-1.91,6.75-6.29l16.46-47.22h2.68L299.74,84.7c1.62,3.55,3.36,5.41,5.62,6a4,4,0,0,0,.48.1c.2,0,.74.07,1.06.1v.51H290.56v-.51c.44,0,.92,0,1.13,0,.44-.08.52-.16,1-.84.72-1,.25-3-.54-5.13Zm-.47-1.15L276,46.88,266.9,72.06Z"/><path class="cls-1" d="M325.19,91.43H308.5V90.9h.08a4.21,4.21,0,0,0,3.1-1c1.09-1.09,1.6-3,1.6-5.94V45.25c0-2.94-.51-4.83-1.6-5.93a3.94,3.94,0,0,0-2.94-1h-.25v-.54h16.69v.54h-.29a4,4,0,0,0-2.89,1c-1.1,1.1-1.61,3-1.61,5.93V90.88H332c6.47,0,12.92-2.3,16.44-7.28a13.93,13.93,0,0,1,1.39-1.91h0l-4.18,9.75Z"/><path class="cls-1" d="M367.48,38.29a3.74,3.74,0,0,0-2.79,1c-1.05,1.1-1.55,3-1.55,5.93V83.94c0,3,.5,4.85,1.55,5.94a3.7,3.7,0,0,0,2.82,1h.25v.53H351.69v-.53h.08a3.93,3.93,0,0,0,3-1c1.06-1.09,1.55-3,1.55-5.93V45.26c0-2.94-.49-4.83-1.55-5.93a3.71,3.71,0,0,0-2.82-1h-.24v-.53h16.06v.53h-.28Z"/><rect class="cls-1" x="222.16" y="111.42" width="1.04" height="16.04"/><rect class="cls-1" x="329.27" y="111.42" width="1.04" height="16.04"/><rect class="cls-1" x="315.71" y="126.41" width="10.35" height="1.04"/><rect class="cls-1" x="315.66" y="111.62" width="1.04" height="15.84"/><polygon class="cls-1" points="292.65 111.83 292.11 111.83 285.29 123.32 283.55 120.49 278.7 111.83 278.17 111.83 277.4 111.84 277.4 127.46 278.44 127.46 278.44 113.43 282.67 121.05 284.63 124.23 285.3 125.29 292.38 113.43 292.38 127.46 293.42 127.46 293.42 111.84 292.65 111.83"/><rect class="cls-1" x="151.74" y="111.68" width="13.19" height="1.04"/><rect class="cls-1" x="157.82" y="112.2" width="1.04" height="15.25"/><rect class="cls-1" x="199.97" y="111.69" width="13.19" height="1.04"/><rect class="cls-1" x="206.04" y="112.21" width="1.04" height="15.26"/><rect class="cls-1" x="167.94" y="111.41" width="1.04" height="16.04"/><rect class="cls-1" x="168.13" y="118.97" width="12.79" height="1.04"/><rect class="cls-1" x="179.93" y="111.41" width="1.04" height="16.04"/><path class="cls-1" d="M200.16,127.2l-2-4.25H188L186,127.2h-.33l7-15.42h.54l7.19,15.42Zm-12-4.69H198L193,112Z"/><path class="cls-1" d="M193.44,111.52h-.86l-7.14,15.66a1.64,1.64,0,0,0-.12.28h.9l1.94-4.25H198l2,4.25h.87c0-.1-.07-.18-.12-.28l-7.31-15.66Zm-4.88,10.73,4.13-8.88.35-.77.35.76,4.18,8.89Z"/><path class="cls-1" d="M273,127.2,271,123H260.81l-1.94,4.25h-.33l7-15.42h.53l7.19,15.42Zm-12-4.69h9.84L265.86,112Z"/><path class="cls-1" d="M266.26,111.52h-.86l-7.13,15.66a2.72,2.72,0,0,0-.13.28h.9l1.94-4.25h9.81l2,4.25h.87l-.13-.28-7.31-15.66Zm-4.88,10.73,4.13-8.88.35-.77.36.76,4.17,8.89Z"/><path class="cls-1" d="M311.64,127.2l-2-4.25H299.46l-1.94,4.25h-.33l7-15.42h.53l7.19,15.42Zm-12-4.69h9.84L304.52,112Z"/><path class="cls-1" d="M304.91,111.52h-.86l-7.14,15.66a1.83,1.83,0,0,0-.12.29h.9l1.94-4.26h9.81l2,4.26h.87c0-.1-.08-.18-.12-.29l-7.31-15.66ZM300,122.25l4.13-8.88.36-.77.35.76,4.17,8.89Z"/><rect class="cls-1" x="247.89" y="111.91" width="7.38" height="1.04"/><path class="cls-1" d="M250.89,128a5.64,5.64,0,0,1-4.22-2.36l.84-.62c.09.13,2.32,3.1,5.08,1.43a3.53,3.53,0,0,0,1.63-2.7V112.44h1v11.34a4.56,4.56,0,0,1-2.13,3.55A4.33,4.33,0,0,1,250.89,128Z"/><path class="cls-1" d="M233.43,128a11.09,11.09,0,0,1-5.45-1.48l.55-.89a9.8,9.8,0,0,0,7.29,1,3.23,3.23,0,0,0,2.28-2.67,2.34,2.34,0,0,0-.49-1.83c-.74-.88-2.33-1.43-4.74-1.63s-4.16-.9-5-2.1a3,3,0,0,1-.53-2.27,4.26,4.26,0,0,1,3-3.51,9.83,9.83,0,0,1,7.58.84l-.56.88.28-.44-.28.44a8.93,8.93,0,0,0-6.73-.72,3.21,3.21,0,0,0-2.28,2.66v.06a1.92,1.92,0,0,0,.37,1.47c.66.91,2.13,1.48,4.24,1.65,2.73.22,4.51.87,5.45,2a3.39,3.39,0,0,1,.73,2.62,4.32,4.32,0,0,1-3,3.55A8.79,8.79,0,0,1,233.43,128Z"/><path class="cls-2" d="M104.46,3.27c0,.54-.55.56-.95.69-6.05,1.94-9,6.55-10.46,12.35A27,27,0,0,0,92.49,23q0,27.17,0,54.32c0,1-.1,2-.15,3,0,15.12.73,30.29-.19,45.34C91.1,142.25,83,155.1,67,160.85c-13.86,4.94-27.76,4.49-40-5.11-7.38-5.76-11.43-13.56-13-22.69-.57-3.32-.86-6.59.43-9.87,2.39-6.14,8.79-10.05,15.05-9.06a14.31,14.31,0,0,1,11.79,13.71c.06,4.34-2.07,7.77-4.81,10.89-1,1.09-1.92,2.17-2.86,3.27-4.71,5.57-3.44,11.8,2.52,16.12a19.18,19.18,0,0,0,8.08,3,31.75,31.75,0,0,0,11.9,0c5.83-1.13,9.52-4.68,11.37-10.25a53,53,0,0,0,2.69-16.25c.14-23.4.09-46.81.11-70.22,0-.94.1-1.88.15-2.81,0-.44,0-.87,0-1.3a1.51,1.51,0,0,0,0-1.68l0-11.45a3.93,3.93,0,0,0,0-2.9q-.06-11.55-.12-23.11A19.89,19.89,0,0,0,66.06,8.75a13.37,13.37,0,0,0-6.21-4.61,4.3,4.3,0,0,1-2-1.07c.47-.48,1.06-.28,1.56-.28l43.16,0a2.82,2.82,0,0,1,.65,0C103.71,2.84,104.42,2.48,104.46,3.27Z"/><path class="cls-3" d="M70.27,44.25a4,4,0,0,1,0,2.9A6.91,6.91,0,0,1,70.27,44.25Z"/><path class="cls-3" d="M70.29,58.6a1.51,1.51,0,0,1,0,1.69A2.51,2.51,0,0,1,70.29,58.6Z"/><path class="cls-4" d="M2.69.14A51,51,0,0,1,45.37,22.68s7.88,10.86,9,24.81l.42,11.82V101l-.08,3.61s-.13,2.35-1.66,2.27l-1.54-.08A53.5,53.5,0,0,1,16,89.67S4.85,79.34,2.44,59.31c0,0-.32-10.13-.32-17.55L2.07,2.16S2.16.37,2.69.14Z"/></svg>